<?xml version="1.0" encoding="utf-8"?>
<!-- Generator: Adobe Illustrator 16.0.1, SVG Export Plug-In . SVG Version: 6.00 Build 0)  -->
<!DOCTYPE svg PUBLIC "-//W3C//DTD SVG 1.1//EN" "http://www.w3.org/Graphics/SVG/1.1/DTD/svg11.dtd">
<svg version="1.1" id="Layer_1" xmlns="http://www.w3.org/2000/svg" xmlns:xlink="http://www.w3.org/1999/xlink" x="0px" y="0px"
	 width="256px" height="224px" viewBox="0 0 256 224" enable-background="new 0 0 256 224" xml:space="preserve">
<path fill="#FC6A06" d="M249.61,19.208C232.884,6.642,212.962,0,191.999,0c-15.136,0-30.22,3.619-43.62,10.465
	c-7.344,3.752-14.212,8.482-20.379,14c-6.168-5.518-13.036-10.248-20.38-14C94.22,3.619,79.136,0,64,0
	C43.038,0,23.117,6.642,6.391,19.206C2.367,22.229,0,26.967,0,31.999v160.002c0,6.062,3.427,11.604,8.85,14.313
	c2.263,1.13,4.712,1.687,7.148,1.687c3.404,0,6.786-1.085,9.611-3.207C36.75,196.426,50.025,192.002,64,192.002
	c20.317,0,38.981,9.334,51.208,25.608c3.022,4.022,7.761,6.39,12.792,6.39c5.032,0,9.771-2.367,12.793-6.39
	c12.225-16.274,30.889-25.608,51.206-25.608c13.976,0,27.251,4.424,38.391,12.793c2.825,2.121,6.208,3.207,9.612,3.207
	c2.438,0,4.885-0.556,7.147-1.687c5.424-2.709,8.851-8.251,8.851-14.313V32C256,26.969,253.633,22.229,249.61,19.208z M64,176.002
	c-18.011,0-34.629,5.955-48,15.999V31.999C29.371,21.955,45.989,16,64,16c23.897,0,45.341,10.484,60,27.097V203.1
	C109.341,186.486,87.897,176.002,64,176.002z M240,192.002c-13.371-10.045-29.99-16-48.001-16
	c-23.897,0-45.341,10.484-59.999,27.097V43.097C146.658,26.484,168.102,16,191.999,16c18.011,0,34.63,5.955,48.001,16V192.002z"/>
<g>
</g>
<g>
</g>
<g>
</g>
<g>
</g>
<g>
</g>
<g>
</g>
<g>
</g>
<g>
</g>
<g>
</g>
<g>
</g>
<g>
</g>
<g>
</g>
<g>
</g>
<g>
</g>
<g>
</g>
</svg>
