<?xml version="1.0" encoding="utf-8"?>
<!-- Generator: Adobe Illustrator 15.0.0, SVG Export Plug-In . SVG Version: 6.00 Build 0)  -->
<!DOCTYPE svg PUBLIC "-//W3C//DTD SVG 1.1//EN" "http://www.w3.org/Graphics/SVG/1.1/DTD/svg11.dtd">
<svg version="1.1" id="Layer_1" xmlns="http://www.w3.org/2000/svg" xmlns:xlink="http://www.w3.org/1999/xlink" x="0px" y="0px"
	 width="828px" height="232px" viewBox="0 0 828 232" enable-background="new 0 0 828 232" xml:space="preserve">
<g enable-background="new    ">
	<path d="M131.887,47.513l-0.897,12.021H93.131l-4.306,48.086h26.195l-1.077,12.021H87.748l-5.203,60.107H58.502L70.165,47.513
		H131.887z"/>
	<path d="M184.998,114.079l-3.588,40.19c-0.601,7.061-4.188,13.07-10.767,18.032c-6.58,4.966-14.235,7.446-22.966,7.446h-3.588
		c-8.254,0-15.251-2.153-20.993-6.459c-6.342-4.783-9.151-11.125-8.433-19.02l3.588-40.191c0.718-7.895,4.665-14.233,11.842-19.019
		c6.338-4.307,13.636-6.46,21.89-6.46h3.769c8.133,0,15.072,2.153,20.812,6.46C182.904,99.967,185.716,106.305,184.998,114.079z
		 M160.955,114.079c0.358-4.306-0.27-7.595-1.885-9.868c-1.614-2.271-3.739-3.409-6.369-3.409c-2.513,0-4.786,1.076-6.818,3.229
		c-2.153,2.513-3.409,5.862-3.768,10.048l-3.409,40.19c-0.359,4.068,0.297,7.299,1.974,9.689c1.674,2.395,3.769,3.648,6.28,3.768
		c2.512,0.121,4.812-0.986,6.908-3.318c2.092-2.333,3.319-5.711,3.678-10.139L160.955,114.079z"/>
	<path d="M257.843,114.079l-3.588,40.19c-0.601,7.061-4.188,13.07-10.767,18.032c-6.579,4.966-14.235,7.446-22.966,7.446h-3.588
		c-8.254,0-15.251-2.153-20.993-6.459c-6.342-4.783-9.15-11.125-8.433-19.02l3.588-40.191c0.718-7.895,4.665-14.233,11.842-19.019
		c6.338-4.307,13.637-6.46,21.891-6.46h3.768c8.133,0,15.072,2.153,20.813,6.46C255.749,99.967,258.561,106.305,257.843,114.079z
		 M233.8,114.079c0.359-4.306-0.27-7.595-1.884-9.868c-1.615-2.271-3.74-3.409-6.37-3.409c-2.512,0-4.786,1.076-6.818,3.229
		c-2.152,2.513-3.409,5.862-3.768,10.048l-3.409,40.19c-0.359,4.068,0.297,7.299,1.974,9.689c1.675,2.395,3.769,3.648,6.28,3.768
		c2.512,0.121,4.813-0.986,6.908-3.318c2.092-2.333,3.32-5.711,3.678-10.139L233.8,114.079z"/>
	<path d="M342.889,47.513l-9.869,112.141c-0.479,5.383,2.033,8.074,7.536,8.074l-1.077,12.021h-8.971
		c-8.253,0-14.416-2.45-18.481-7.356c-5.265,4.906-12.021,7.356-20.274,7.356c-8.733,0-16.031-1.974-21.891-5.921
		c-6.817-4.545-9.867-11.062-9.149-19.559l3.409-40.19c0.718-7.774,4.666-14.112,11.842-19.019c6.459-4.307,13.754-6.46,21.89-6.46
		h17.225l2.691-29.066h-6.818l1.077-12.021H342.889z M314.181,100.622h-17.404c-5.023,0-7.776,2.992-8.254,8.972l-3.946,46.112
		c-0.719,8.017,2.63,12.021,10.048,12.021c3.706,0,6.997-1.313,9.868-3.947c2.871-2.629,4.485-5.801,4.845-9.51L314.181,100.622z"/>
	<path d="M418.245,107.62c3.827,2.871,5.742,7.177,5.742,12.919l-0.18,3.05l-3.229,37.5c0,0.479,0,0.959,0,1.437
		c0,3.471,1.975,5.203,5.922,5.203l-1.076,12.021h-10.229c-12.441,0-18.66-5.501-18.66-16.507c0-0.719,0.06-1.436,0.181-2.153
		l3.05-37.142c0-0.598,0-1.135,0-1.614c0-4.308-1.975-6.459-5.921-6.459h-12.918l-5.562,63.875H351.5l10.406-120.215h-6.998
		l1.076-11.842h43.242c8.253,0,15.01,1.735,20.274,5.203c6.102,4.067,9.15,9.988,9.15,17.763
		C428.653,89.08,425.183,101.401,418.245,107.62z M404.789,67.967c0.118-2.392-0.6-4.396-2.152-6.011
		c-1.557-1.614-3.588-2.422-6.102-2.422h-10.586l-3.946,44.318h12.2c5.143,0,7.954-2.989,8.434-8.972L404.789,67.967z"/>
	<path d="M511.007,167.729l-1.077,12.021h-42.883c-8.972,0-16.029-2.271-21.172-6.817c-5.623-4.904-8.017-11.843-7.178-20.813
		l4.485-51.495h-6.279l1.076-12.021h30.144l-5.562,66.567c-0.242,3.351,0.387,6.279,1.883,8.792
		c1.494,2.512,3.738,3.768,6.729,3.768h8.612l6.997-79.126h24.043l-6.816,79.126H511.007L511.007,167.729z"/>
	<path d="M601.075,114.079l-3.588,40.19c-0.718,8.375-4.966,14.894-12.739,19.559c-6.46,3.947-14.058,5.921-22.786,5.921
		c-8.255,0-14.597-2.45-19.021-7.356c-4.906,4.906-11.425,7.356-19.558,7.356h-8.791l1.075-12.021
		c5.143-0.238,7.953-2.931,8.435-8.074l9.867-112.141h33.193l-0.896,12.021h-9.15L554.605,88.6h17.225
		c8.134,0,15.071,2.153,20.813,6.46C598.982,99.967,601.794,106.305,601.075,114.079z M577.571,109.594
		c0.478-5.979-1.794-8.972-6.816-8.972h-17.227l-4.844,53.647c-0.359,3.709,0.687,6.881,3.14,9.511
		c2.45,2.633,5.531,3.946,9.24,3.946c7.536,0,11.663-4.006,12.381-12.021L577.571,109.594z"/>
	<path d="M640.906,167.729l-1.076,12.021h-3.589c-8.731,0-15.492-2.002-20.273-6.011c-4.786-4.006-6.88-9.479-6.28-16.418
		l5.024-56.698h-6.818l1.076-12.021h30.682l-5.921,68.721C633.25,163.542,635.642,167.01,640.906,167.729z M641.983,59.714
		c0,3.35-1.197,6.251-3.589,8.702c-2.396,2.452-5.265,3.678-8.612,3.678c-3.351,0-6.221-1.194-8.611-3.589
		c-2.396-2.391-3.59-5.32-3.59-8.791c0-3.348,1.194-6.219,3.59-8.613c2.392-2.391,5.262-3.588,8.611-3.588
		c3.349,0,6.219,1.197,8.612,3.588C640.785,53.495,641.983,56.366,641.983,59.714z"/>
</g>
<defs>
	<filter id="Adobe_OpacityMaskFilter" filterUnits="userSpaceOnUse" x="58.502" y="47.513" width="583.48" height="132.236">
		<feColorMatrix  type="matrix" values="1 0 0 0 0  0 1 0 0 0  0 0 1 0 0  0 0 0 1 0"/>
	</filter>
</defs>
<mask maskUnits="userSpaceOnUse" x="58.502" y="47.513" width="583.48" height="132.236" id="SVGID_1_">
	<g filter="url(#Adobe_OpacityMaskFilter)">
		<ellipse fill="#606060" cx="408.311" cy="59.389" rx="346.5" ry="76.004"/>
	</g>
</mask>
<g mask="url(#SVGID_1_)">
	<g enable-background="new    ">
		<path fill="#B2B2B2" d="M131.887,47.513l-0.897,12.021H93.131l-4.306,48.086h26.195l-1.077,12.021H87.748l-5.203,60.107H58.502
			L70.165,47.513H131.887z"/>
		<path fill="#B2B2B2" d="M184.998,114.079l-3.588,40.19c-0.601,7.061-4.188,13.07-10.767,18.032
			c-6.58,4.966-14.235,7.446-22.966,7.446h-3.588c-8.254,0-15.251-2.153-20.993-6.459c-6.342-4.783-9.151-11.125-8.433-19.02
			l3.588-40.191c0.718-7.895,4.665-14.233,11.842-19.019c6.338-4.307,13.636-6.46,21.89-6.46h3.769
			c8.133,0,15.072,2.153,20.812,6.46C182.904,99.967,185.716,106.305,184.998,114.079z M160.955,114.079
			c0.358-4.306-0.27-7.595-1.885-9.868c-1.614-2.271-3.739-3.409-6.369-3.409c-2.513,0-4.786,1.076-6.818,3.229
			c-2.153,2.513-3.409,5.862-3.768,10.048l-3.409,40.19c-0.359,4.068,0.297,7.299,1.974,9.689c1.674,2.395,3.769,3.648,6.28,3.768
			c2.512,0.121,4.812-0.986,6.908-3.318c2.092-2.333,3.319-5.711,3.678-10.139L160.955,114.079z"/>
		<path fill="#B2B2B2" d="M257.843,114.079l-3.588,40.19c-0.601,7.061-4.188,13.07-10.767,18.032
			c-6.579,4.966-14.235,7.446-22.966,7.446h-3.588c-8.254,0-15.251-2.153-20.993-6.459c-6.342-4.783-9.15-11.125-8.433-19.02
			l3.588-40.191c0.718-7.895,4.665-14.233,11.842-19.019c6.338-4.307,13.637-6.46,21.891-6.46h3.768
			c8.133,0,15.072,2.153,20.813,6.46C255.749,99.967,258.561,106.305,257.843,114.079z M233.8,114.079
			c0.359-4.306-0.27-7.595-1.884-9.868c-1.615-2.271-3.74-3.409-6.37-3.409c-2.512,0-4.786,1.076-6.818,3.229
			c-2.152,2.513-3.409,5.862-3.768,10.048l-3.409,40.19c-0.359,4.068,0.297,7.299,1.974,9.689c1.675,2.395,3.769,3.648,6.28,3.768
			c2.512,0.121,4.813-0.986,6.908-3.318c2.092-2.333,3.32-5.711,3.678-10.139L233.8,114.079z"/>
		<path fill="#B2B2B2" d="M342.889,47.513l-9.869,112.141c-0.479,5.383,2.033,8.074,7.536,8.074l-1.077,12.021h-8.971
			c-8.253,0-14.416-2.45-18.481-7.356c-5.265,4.906-12.021,7.356-20.274,7.356c-8.733,0-16.031-1.974-21.891-5.921
			c-6.817-4.545-9.867-11.062-9.149-19.559l3.409-40.19c0.718-7.774,4.666-14.112,11.842-19.019c6.459-4.307,13.754-6.46,21.89-6.46
			h17.225l2.691-29.066h-6.818l1.077-12.021H342.889z M314.181,100.622h-17.404c-5.023,0-7.776,2.992-8.254,8.972l-3.946,46.112
			c-0.719,8.017,2.63,12.021,10.048,12.021c3.706,0,6.997-1.313,9.868-3.947c2.871-2.629,4.485-5.801,4.845-9.51L314.181,100.622z"
			/>
		<path fill="#B2B2B2" d="M418.245,107.62c3.827,2.871,5.742,7.177,5.742,12.919l-0.18,3.05l-3.229,37.5c0,0.479,0,0.959,0,1.437
			c0,3.471,1.975,5.203,5.922,5.203l-1.076,12.021h-10.229c-12.441,0-18.66-5.501-18.66-16.507c0-0.719,0.06-1.436,0.181-2.153
			l3.05-37.142c0-0.598,0-1.135,0-1.614c0-4.308-1.975-6.459-5.921-6.459h-12.918l-5.562,63.875H351.5l10.406-120.215h-6.998
			l1.076-11.842h43.242c8.253,0,15.01,1.735,20.274,5.203c6.102,4.067,9.15,9.988,9.15,17.763
			C428.653,89.08,425.183,101.401,418.245,107.62z M404.789,67.967c0.118-2.392-0.6-4.396-2.152-6.011
			c-1.557-1.614-3.588-2.422-6.102-2.422h-10.586l-3.946,44.318h12.2c5.143,0,7.954-2.989,8.434-8.972L404.789,67.967z"/>
		<path fill="#B2B2B2" d="M511.007,167.729l-1.077,12.021h-42.883c-8.972,0-16.029-2.271-21.172-6.817
			c-5.623-4.904-8.017-11.843-7.178-20.813l4.485-51.495h-6.279l1.076-12.021h30.144l-5.562,66.567
			c-0.242,3.351,0.387,6.279,1.883,8.792c1.494,2.512,3.738,3.768,6.729,3.768h8.612l6.997-79.126h24.043l-6.816,79.126H511.007
			L511.007,167.729z"/>
		<path fill="#B2B2B2" d="M601.075,114.079l-3.588,40.19c-0.718,8.375-4.966,14.894-12.739,19.559
			c-6.46,3.947-14.058,5.921-22.786,5.921c-8.255,0-14.597-2.45-19.021-7.356c-4.906,4.906-11.425,7.356-19.558,7.356h-8.791
			l1.075-12.021c5.143-0.238,7.953-2.931,8.435-8.074l9.867-112.141h33.193l-0.896,12.021h-9.15L554.605,88.6h17.225
			c8.134,0,15.071,2.153,20.813,6.46C598.982,99.967,601.794,106.305,601.075,114.079z M577.571,109.594
			c0.478-5.979-1.794-8.972-6.816-8.972h-17.227l-4.844,53.647c-0.359,3.709,0.687,6.881,3.14,9.511
			c2.45,2.633,5.531,3.946,9.24,3.946c7.536,0,11.663-4.006,12.381-12.021L577.571,109.594z"/>
		<path fill="#B2B2B2" d="M640.906,167.729l-1.076,12.021h-3.589c-8.731,0-15.492-2.002-20.273-6.011
			c-4.786-4.006-6.88-9.479-6.28-16.418l5.024-56.698h-6.818l1.076-12.021h30.682l-5.921,68.721
			C633.25,163.542,635.642,167.01,640.906,167.729z M641.983,59.714c0,3.35-1.197,6.251-3.589,8.702
			c-2.396,2.452-5.265,3.678-8.612,3.678c-3.351,0-6.221-1.194-8.611-3.589c-2.396-2.391-3.59-5.32-3.59-8.791
			c0-3.348,1.194-6.219,3.59-8.613c2.392-2.391,5.262-3.588,8.611-3.588c3.349,0,6.219,1.197,8.612,3.588
			C640.785,53.495,641.983,56.366,641.983,59.714z"/>
	</g>
</g>
<g>
	<g>
		<path fill="#E96000" d="M771.604,170.68c0,5.15-3.405,9.325-7.605,9.325H663.199c-4.201,0-7.605-4.175-7.605-9.325V83.915
			c0-5.151,3.404-9.326,7.605-9.326h100.797c4.2,0,7.606,4.175,7.606,9.326L771.604,170.68L771.604,170.68z"/>
		<path fill="#E96000" d="M680.254,74.589c0,0,4.777-13.636,11.51-13.636c6.731,0,45.17,0,45.17,0s4.709-0.708,9.631,13.636H680.254
			z"/>
	</g>
	<defs>
		<filter id="Adobe_OpacityMaskFilter_1_" filterUnits="userSpaceOnUse" x="655.594" y="60.947" width="116.01" height="119.058">
			<feColorMatrix  type="matrix" values="1 0 0 0 0  0 1 0 0 0  0 0 1 0 0  0 0 0 1 0"/>
		</filter>
	</defs>
	<mask maskUnits="userSpaceOnUse" x="655.594" y="60.947" width="116.01" height="119.058" id="SVGID_2_">
		<g filter="url(#Adobe_OpacityMaskFilter_1_)">
		</g>
	</mask>
	<g mask="url(#SVGID_2_)">
		<path fill="#F79B5C" d="M771.604,170.68c0,5.15-3.405,9.325-7.605,9.325H663.199c-4.201,0-7.605-4.175-7.605-9.325V83.915
			c0-5.151,3.404-9.326,7.605-9.326h100.797c4.2,0,7.606,4.175,7.606,9.326L771.604,170.68L771.604,170.68z"/>
		<path fill="#F79B5C" d="M680.254,74.589c0,0,4.777-13.636,11.51-13.636c6.731,0,45.17,0,45.17,0s4.709-0.708,9.631,13.636H680.254
			z"/>
	</g>
	<circle fill="#ED8D4C" cx="713.599" cy="125.297" r="32.753"/>
</g>
<g>
	<polygon fill="none" stroke="#FFFFFF" stroke-width="2" stroke-miterlimit="10" points="744.396,83.381 719.076,110.346 
		719.275,118.042 671.604,168.812 678.504,175.292 726.388,124.295 734.604,123.932 759.428,97.497 756.247,94.51 738.026,113.915 
		735.269,111.323 753.488,91.918 750.367,88.989 731.765,108.801 728.957,106.167 747.562,86.354 	"/>
	<polygon fill="#FFFFFF" points="669.461,88.056 677.733,111.458 687.846,121.65 705.067,130.393 750.952,176.29 758.212,169.086 
		673.491,84.055 	"/>
</g>
</svg>
