<?xml version="1.0" encoding="utf-8"?>
<!-- Generator: Adobe Illustrator 16.0.1, SVG Export Plug-In . SVG Version: 6.00 Build 0)  -->
<!DOCTYPE svg PUBLIC "-//W3C//DTD SVG 1.1//EN" "http://www.w3.org/Graphics/SVG/1.1/DTD/svg11.dtd">
<svg version="1.1" id="Layer_1" xmlns="http://www.w3.org/2000/svg" xmlns:xlink="http://www.w3.org/1999/xlink" x="0px" y="0px"
	 width="321px" height="64px" viewBox="0 0 321 64" enable-background="new 0 0 321 64" xml:space="preserve">
<g enable-background="new    ">
	<path d="M33.443,9.855l-0.329,4.421H19.189l-1.583,17.687h9.634l-0.396,4.422H17.21l-1.914,22.107H6.454l4.29-48.637H33.443z"/>
	<path d="M52.979,34.338l-1.32,14.783c-0.221,2.598-1.54,4.808-3.959,6.633c-2.42,1.826-5.236,2.738-8.447,2.738h-1.32
		c-3.037,0-5.609-0.791-7.721-2.375c-2.333-1.759-3.367-4.092-3.102-6.996l1.319-14.781c0.265-2.904,1.717-5.235,4.356-6.996
		c2.332-1.584,5.015-2.376,8.052-2.376h1.385c2.992,0,5.544,0.792,7.655,2.376C52.208,29.148,53.243,31.479,52.979,34.338z
		 M44.135,34.338c0.132-1.582-0.1-2.793-0.693-3.629c-0.594-0.836-1.375-1.254-2.342-1.254c-0.924,0-1.761,0.396-2.508,1.188
		c-0.792,0.924-1.254,2.155-1.386,3.694l-1.254,14.783c-0.132,1.496,0.109,2.685,0.727,3.563c0.615,0.881,1.385,1.342,2.31,1.386
		c0.923,0.045,1.77-0.361,2.541-1.22c0.77-0.858,1.221-2.101,1.353-3.729L44.135,34.338z"/>
	<path d="M79.771,34.338l-1.319,14.783c-0.221,2.598-1.541,4.808-3.96,6.633c-2.42,1.826-5.236,2.738-8.447,2.738h-1.32
		c-3.036,0-5.61-0.791-7.722-2.375c-2.333-1.759-3.366-4.092-3.102-6.996l1.321-14.781c0.264-2.904,1.716-5.235,4.355-6.996
		c2.331-1.584,5.016-2.376,8.051-2.376h1.387c2.991,0,5.542,0.792,7.654,2.376C79.001,29.148,80.036,31.479,79.771,34.338z
		 M70.928,34.338c0.131-1.582-0.1-2.793-0.693-3.629c-0.594-0.836-1.376-1.254-2.343-1.254c-0.923,0-1.76,0.396-2.508,1.188
		c-0.791,0.924-1.253,2.155-1.385,3.694l-1.254,14.783c-0.132,1.496,0.109,2.685,0.726,3.563c0.616,0.881,1.387,1.342,2.31,1.386
		c0.925,0.045,1.77-0.361,2.541-1.22c0.77-0.858,1.222-2.101,1.354-3.729L70.928,34.338z"/>
	<path d="M111.052,9.855l-3.629,41.246c-0.177,1.98,0.747,2.97,2.771,2.97l-0.396,4.421h-3.3c-3.035,0-5.303-0.9-6.797-2.705
		c-1.936,1.805-4.42,2.705-7.457,2.705c-3.212,0-5.896-0.727-8.051-2.179c-2.508-1.67-3.63-4.067-3.366-7.192l1.254-14.783
		c0.265-2.858,1.716-5.189,4.355-6.994c2.376-1.586,5.06-2.377,8.052-2.377h6.335l0.99-10.69h-2.508l0.396-4.421H111.052z
		 M100.494,29.39h-6.401c-1.849,0-2.86,1.101-3.036,3.299l-1.453,16.96c-0.264,2.949,0.968,4.421,3.697,4.421
		c1.364,0,2.574-0.481,3.629-1.45c1.056-0.968,1.65-2.135,1.782-3.5L100.494,29.39z"/>
	<path d="M138.769,31.963c1.408,1.058,2.113,2.641,2.113,4.752l-0.066,1.121l-1.188,13.793c0,0.177,0,0.354,0,0.529
		c0,1.276,0.727,1.913,2.178,1.913l-0.396,4.421h-3.762c-4.576,0-6.863-2.022-6.863-6.07c0-0.266,0.021-0.528,0.066-0.793
		l1.121-13.66c0-0.221,0-0.417,0-0.594c0-1.586-0.726-2.377-2.177-2.377h-4.752l-2.045,23.494h-8.777l3.828-44.216h-2.575
		l0.396-4.356h15.904c3.037,0,5.521,0.64,7.457,1.916c2.246,1.494,3.367,3.672,3.367,6.533
		C142.596,25.145,141.32,29.676,138.769,31.963z M133.82,17.379c0.045-0.881-0.221-1.617-0.791-2.211
		c-0.572-0.594-1.319-0.892-2.244-0.892h-3.893l-1.453,16.3h4.487c1.892,0,2.927-1.099,3.103-3.3L133.82,17.379z"/>
	<path d="M172.887,54.071l-0.395,4.421h-15.773c-3.3,0-5.896-0.836-7.788-2.507c-2.068-1.805-2.947-4.356-2.639-7.655l1.648-18.94
		h-2.309l0.396-4.421h11.086l-2.047,24.484c-0.088,1.231,0.144,2.31,0.692,3.233c0.55,0.924,1.375,1.386,2.476,1.386h3.168
		l2.574-29.104h8.842l-2.506,29.104L172.887,54.071L172.887,54.071z"/>
	<path d="M206.016,34.338l-1.32,14.783c-0.264,3.08-1.826,5.479-4.686,7.192c-2.375,1.452-5.17,2.179-8.381,2.179
		c-3.037,0-5.369-0.9-6.996-2.705c-1.805,1.805-4.203,2.705-7.193,2.705h-3.234l0.396-4.421c1.891-0.088,2.926-1.077,3.102-2.97
		l3.629-41.246h12.209l-0.33,4.421h-3.365l-0.924,10.69h6.334c2.992,0,5.543,0.791,7.656,2.377
		C205.246,29.148,206.279,31.479,206.016,34.338z M197.369,32.688c0.176-2.199-0.658-3.299-2.506-3.299h-6.336l-1.783,19.731
		c-0.131,1.363,0.254,2.53,1.156,3.498c0.9,0.969,2.035,1.451,3.398,1.451c2.771,0,4.289-1.473,4.555-4.421L197.369,32.688z"/>
	<path d="M220.666,54.071l-0.396,4.421h-1.32c-3.211,0-5.697-0.736-7.457-2.211c-1.76-1.474-2.531-3.486-2.309-6.039l1.848-20.854
		h-2.508l0.396-4.421h11.285l-2.178,25.276C217.85,52.533,218.729,53.808,220.666,54.071z M221.062,14.343
		c0,1.233-0.439,2.3-1.32,3.2c-0.881,0.902-1.938,1.353-3.168,1.353c-1.232,0-2.289-0.438-3.168-1.319
		c-0.879-0.88-1.32-1.957-1.32-3.233c0-1.231,0.439-2.287,1.32-3.169c0.881-0.879,1.936-1.318,3.168-1.318s2.287,0.439,3.168,1.318
		C220.621,12.056,221.062,13.111,221.062,14.343z"/>
</g>
<defs>
	<filter id="Adobe_OpacityMaskFilter" filterUnits="userSpaceOnUse" x="6.454" y="9.855" width="214.609" height="48.637">
		<feColorMatrix  type="matrix" values="1 0 0 0 0  0 1 0 0 0  0 0 1 0 0  0 0 0 1 0"/>
	</filter>
</defs>
<mask maskUnits="userSpaceOnUse" x="6.454" y="9.855" width="214.609" height="48.637" id="SVGID_1_">
	<g filter="url(#Adobe_OpacityMaskFilter)">
		<ellipse fill="#606060" cx="135.115" cy="14.224" rx="127.446" ry="27.955"/>
	</g>
</mask>
<g mask="url(#SVGID_1_)">
	<g enable-background="new    ">
		<path fill="#B2B2B2" d="M33.443,9.855l-0.329,4.421H19.189l-1.583,17.687h9.634l-0.396,4.422H17.21l-1.914,22.107H6.454
			l4.29-48.637H33.443z"/>
		<path fill="#B2B2B2" d="M52.979,34.338l-1.32,14.783c-0.221,2.598-1.54,4.808-3.959,6.633c-2.42,1.826-5.236,2.738-8.447,2.738
			h-1.32c-3.037,0-5.609-0.791-7.721-2.375c-2.333-1.759-3.367-4.092-3.102-6.996l1.319-14.781c0.265-2.904,1.717-5.235,4.356-6.996
			c2.332-1.584,5.015-2.376,8.052-2.376h1.385c2.992,0,5.544,0.792,7.655,2.376C52.208,29.148,53.243,31.479,52.979,34.338z
			 M44.135,34.338c0.132-1.582-0.1-2.793-0.693-3.629c-0.594-0.836-1.375-1.254-2.342-1.254c-0.924,0-1.761,0.396-2.508,1.188
			c-0.792,0.924-1.254,2.155-1.386,3.694l-1.254,14.783c-0.132,1.496,0.109,2.685,0.727,3.563c0.615,0.881,1.385,1.342,2.31,1.386
			c0.923,0.045,1.77-0.361,2.541-1.22c0.77-0.858,1.221-2.101,1.353-3.729L44.135,34.338z"/>
		<path fill="#B2B2B2" d="M79.771,34.338l-1.319,14.783c-0.221,2.598-1.541,4.808-3.96,6.633c-2.42,1.826-5.236,2.738-8.447,2.738
			h-1.32c-3.036,0-5.61-0.791-7.722-2.375c-2.333-1.759-3.366-4.092-3.102-6.996l1.321-14.781c0.264-2.904,1.716-5.235,4.355-6.996
			c2.331-1.584,5.016-2.376,8.051-2.376h1.387c2.991,0,5.542,0.792,7.654,2.376C79.001,29.148,80.036,31.479,79.771,34.338z
			 M70.928,34.338c0.131-1.582-0.1-2.793-0.693-3.629c-0.594-0.836-1.376-1.254-2.343-1.254c-0.923,0-1.76,0.396-2.508,1.188
			c-0.791,0.924-1.253,2.155-1.385,3.694l-1.254,14.783c-0.132,1.496,0.109,2.685,0.726,3.563c0.616,0.881,1.387,1.342,2.31,1.386
			c0.925,0.045,1.77-0.361,2.541-1.22c0.77-0.858,1.222-2.101,1.354-3.729L70.928,34.338z"/>
		<path fill="#B2B2B2" d="M111.052,9.855l-3.629,41.246c-0.177,1.98,0.747,2.97,2.771,2.97l-0.396,4.421h-3.3
			c-3.035,0-5.303-0.9-6.797-2.705c-1.936,1.805-4.42,2.705-7.457,2.705c-3.212,0-5.896-0.727-8.051-2.179
			c-2.508-1.67-3.63-4.067-3.366-7.192l1.254-14.783c0.265-2.858,1.716-5.189,4.355-6.994c2.376-1.586,5.06-2.377,8.052-2.377h6.335
			l0.99-10.69h-2.508l0.396-4.421H111.052z M100.494,29.39h-6.401c-1.849,0-2.86,1.101-3.036,3.299l-1.453,16.96
			c-0.264,2.949,0.968,4.421,3.697,4.421c1.364,0,2.574-0.481,3.629-1.45c1.056-0.968,1.65-2.135,1.782-3.5L100.494,29.39z"/>
		<path fill="#B2B2B2" d="M138.769,31.963c1.408,1.058,2.113,2.641,2.113,4.752l-0.066,1.121l-1.188,13.793c0,0.177,0,0.354,0,0.529
			c0,1.276,0.727,1.913,2.178,1.913l-0.396,4.421h-3.762c-4.576,0-6.863-2.022-6.863-6.07c0-0.266,0.021-0.528,0.066-0.793
			l1.121-13.66c0-0.221,0-0.417,0-0.594c0-1.586-0.726-2.377-2.177-2.377h-4.752l-2.045,23.494h-8.777l3.828-44.216h-2.575
			l0.396-4.356h15.904c3.037,0,5.521,0.64,7.457,1.916c2.246,1.494,3.367,3.672,3.367,6.533
			C142.596,25.145,141.32,29.676,138.769,31.963z M133.82,17.379c0.045-0.881-0.221-1.617-0.791-2.211
			c-0.572-0.594-1.319-0.892-2.244-0.892h-3.893l-1.453,16.3h4.487c1.892,0,2.927-1.099,3.103-3.3L133.82,17.379z"/>
		<path fill="#B2B2B2" d="M172.887,54.071l-0.395,4.421h-15.773c-3.3,0-5.896-0.836-7.788-2.507
			c-2.068-1.805-2.947-4.356-2.639-7.655l1.648-18.94h-2.309l0.396-4.421h11.086l-2.047,24.484c-0.088,1.231,0.144,2.31,0.692,3.233
			c0.55,0.924,1.375,1.386,2.476,1.386h3.168l2.574-29.104h8.842l-2.506,29.104L172.887,54.071L172.887,54.071z"/>
		<path fill="#B2B2B2" d="M206.016,34.338l-1.32,14.783c-0.264,3.08-1.826,5.479-4.686,7.192c-2.375,1.452-5.17,2.179-8.381,2.179
			c-3.037,0-5.369-0.9-6.996-2.705c-1.805,1.805-4.203,2.705-7.193,2.705h-3.234l0.396-4.421c1.891-0.088,2.926-1.077,3.102-2.97
			l3.629-41.246h12.209l-0.33,4.421h-3.365l-0.924,10.69h6.334c2.992,0,5.543,0.791,7.656,2.377
			C205.246,29.148,206.279,31.479,206.016,34.338z M197.369,32.688c0.176-2.199-0.658-3.299-2.506-3.299h-6.336l-1.783,19.731
			c-0.131,1.363,0.254,2.53,1.156,3.498c0.9,0.969,2.035,1.451,3.398,1.451c2.771,0,4.289-1.473,4.555-4.421L197.369,32.688z"/>
		<path fill="#B2B2B2" d="M220.666,54.071l-0.396,4.421h-1.32c-3.211,0-5.697-0.736-7.457-2.211
			c-1.76-1.474-2.531-3.486-2.309-6.039l1.848-20.854h-2.508l0.396-4.421h11.285l-2.178,25.276
			C217.85,52.533,218.729,53.808,220.666,54.071z M221.062,14.343c0,1.233-0.439,2.3-1.32,3.2c-0.881,0.902-1.938,1.353-3.168,1.353
			c-1.232,0-2.289-0.438-3.168-1.319c-0.879-0.88-1.32-1.957-1.32-3.233c0-1.231,0.439-2.287,1.32-3.169
			c0.881-0.879,1.936-1.318,3.168-1.318s2.287,0.439,3.168,1.318C220.621,12.056,221.062,13.111,221.062,14.343z"/>
	</g>
</g>
<g>
	<g>
		<path fill="#E96000" d="M268.736,55.156c0,1.896-1.25,3.43-2.797,3.43h-37.074c-1.545,0-2.797-1.535-2.797-3.43V23.244
			c0-1.895,1.252-3.43,2.797-3.43h37.074c1.545,0,2.797,1.535,2.797,3.43V55.156L268.736,55.156z"/>
		<path fill="#E96000" d="M235.137,19.814c0,0,1.758-5.016,4.234-5.016s16.613,0,16.613,0s1.73-0.26,3.543,5.016H235.137z"/>
	</g>
	<defs>
		<filter id="Adobe_OpacityMaskFilter_1_" filterUnits="userSpaceOnUse" x="226.068" y="14.797" width="42.668" height="43.789">
			<feColorMatrix  type="matrix" values="1 0 0 0 0  0 1 0 0 0  0 0 1 0 0  0 0 0 1 0"/>
		</filter>
	</defs>
	<mask maskUnits="userSpaceOnUse" x="226.068" y="14.797" width="42.668" height="43.789" id="SVGID_2_">
		<g filter="url(#Adobe_OpacityMaskFilter_1_)">
		</g>
	</mask>
	<g mask="url(#SVGID_2_)">
		<path fill="#F79B5C" d="M268.736,55.156c0,1.896-1.25,3.43-2.797,3.43h-37.074c-1.545,0-2.797-1.535-2.797-3.43V23.244
			c0-1.895,1.252-3.43,2.797-3.43h37.074c1.545,0,2.797,1.535,2.797,3.43V55.156L268.736,55.156z"/>
		<path fill="#F79B5C" d="M235.137,19.814c0,0,1.758-5.016,4.234-5.016s16.613,0,16.613,0s1.73-0.26,3.543,5.016H235.137z"/>
	</g>
	<circle fill="#ED8D4C" cx="247.402" cy="38.465" r="12.047"/>
</g>
<g>
	<polygon fill="none" stroke="#FFFFFF" stroke-width="2" stroke-miterlimit="10" points="258.73,23.047 249.418,32.965 
		249.49,35.797 231.957,54.471 234.494,56.854 252.105,38.097 255.127,37.963 264.258,28.24 263.09,27.142 256.387,34.278 
		255.373,33.326 262.074,26.188 260.926,25.11 254.084,32.397 253.051,31.43 259.895,24.143 	"/>
	<polygon fill="#FFFFFF" points="231.168,24.769 234.211,33.375 237.93,37.125 244.266,40.34 261.143,57.222 263.812,54.571 
		232.65,23.295 	"/>
</g>
<path id="sms-5-icon" fill="#999999" d="M295.074,10.026c-11.396,0-21.572,5.382-21.572,12.741c0,2.609,1.328,5.173,3.68,7.161
	c0.1,2.329-0.092,3.237-1.838,5.674c4.678-0.599,5.074-1.259,8.09-2.565c16.605,2.859,33.217-2.562,33.217-10.27
	C316.648,15.367,306.398,10.026,295.074,10.026z"/>
<g enable-background="new    ">
	<path fill="#FFFFFF" d="M285.365,21.569c0.691,0.353,1.02,0.983,1.02,1.735c-0.013,1.479-0.91,2.681-2.645,2.681h-3.979v-8.491
		h3.627c1.468,0,2.645,1.14,2.645,2.607C286.032,20.611,285.777,21.23,285.365,21.569z M281.859,19.435v1.371h1.371
		c0.861,0,0.861-1.371-0.012-1.371H281.859z M281.859,22.613v1.443h1.734c0.873,0,0.861-1.443-0.012-1.443H281.859z"/>
</g>
<g enable-background="new    ">
	<path fill="#FFFFFF" d="M293.99,19.435c-1.262,0-1.893,0-3.143,0v1.201h2.887c0,0.643,0,1.286,0,1.929h-2.887
		c0,0.497,0,0.982,0,1.492c1.25,0,1.978,0,3.251,0c0,0.631,0,1.286,0,1.929c-1.989,0-3.444,0-5.41,0c0-2.839,0-5.677,0-8.491
		c1.966,0,3.312,0,5.302,0C293.99,18.125,293.99,18.779,293.99,19.435z"/>
</g>
<g enable-background="new    ">
	<path fill="#FFFFFF" d="M295.736,19.435c0-0.655,0-1.298,0-1.94h6.309c0,0.643,0,1.285,0,1.94h-2.075v6.551
		c-0.716,0-1.431,0-2.147,0v-6.551H295.736z"/>
</g>
<g enable-background="new    ">
	<path fill="#FFFFFF" d="M308.328,24.918h-3.349l-0.497,1.067h-2.123V25.67l3.821-8.285h0.935l3.832,8.285v0.315h-2.122
		L308.328,24.918z M306.642,20.83l-0.958,2.231h1.94L306.642,20.83z"/>
</g>
</svg>
