<?xml version="1.0" encoding="utf-8"?>
<!-- Generator: Adobe Illustrator 15.0.0, SVG Export Plug-In . SVG Version: 6.00 Build 0)  -->
<!DOCTYPE svg PUBLIC "-//W3C//DTD SVG 1.1//EN" "http://www.w3.org/Graphics/SVG/1.1/DTD/svg11.dtd">
<svg version="1.1" id="Layer_1" xmlns="http://www.w3.org/2000/svg" xmlns:xlink="http://www.w3.org/1999/xlink" x="0px" y="0px"
	 width="212.6px" height="212.6px" viewBox="0 0 212.6 212.6" enable-background="new 0 0 212.6 212.6" xml:space="preserve">
<rect id="_x3C_Slice_x3E_" x="0.196" y="0.602" fill="none" width="212.599" height="212.599"/>
<g>
	<g>
		<path fill="#E96100" d="M167.52,156.824c0,5.377-3.557,9.736-7.941,9.736H54.333c-4.386,0-7.94-4.359-7.94-9.736V66.232
			c0-5.378,3.555-9.739,7.94-9.739h105.243c4.387,0,7.943,4.36,7.943,9.739V156.824L167.52,156.824z"/>
		<path fill="#E96100" d="M72.141,56.494c0,0,4.988-14.237,12.018-14.237c7.028,0,47.162,0,47.162,0s4.916-0.739,10.055,14.237
			H72.141z"/>
	</g>
	<defs>
		<filter id="Adobe_OpacityMaskFilter" filterUnits="userSpaceOnUse" x="46.393" y="42.251" width="121.128" height="124.31">
			<feColorMatrix  type="matrix" values="1 0 0 0 0  0 1 0 0 0  0 0 1 0 0  0 0 0 1 0"/>
		</filter>
	</defs>
	<mask maskUnits="userSpaceOnUse" x="46.393" y="42.251" width="121.128" height="124.31" id="SVGID_1_">
		<g filter="url(#Adobe_OpacityMaskFilter)">
		</g>
	</mask>
	<g mask="url(#SVGID_1_)">
		<path fill="#F89C5D" d="M167.52,156.824c0,5.377-3.557,9.736-7.941,9.736H54.333c-4.386,0-7.94-4.359-7.94-9.736V66.232
			c0-5.378,3.555-9.739,7.94-9.739h105.243c4.387,0,7.943,4.36,7.943,9.739V156.824L167.52,156.824z"/>
		<path fill="#F89C5D" d="M72.141,56.494c0,0,4.988-14.237,12.018-14.237c7.028,0,47.162,0,47.162,0s4.916-0.739,10.055,14.237
			H72.141z"/>
	</g>
	<circle fill="#EC8D4C" cx="106.956" cy="109.439" r="34.198"/>
</g>
<g>
	<polygon fill="none" stroke="#FFFFFF" stroke-width="2" stroke-miterlimit="10" points="139.111,65.674 112.676,93.828 
		112.883,101.866 63.108,154.875 70.313,161.641 120.309,108.393 128.887,108.015 154.807,80.413 151.486,77.293 132.461,97.555 
		129.582,94.848 148.604,74.588 145.346,71.53 125.924,92.215 122.992,89.465 142.418,68.779 	"/>
	<polygon fill="#FFFFFF" points="60.871,70.557 69.508,94.988 80.067,105.634 98.048,114.76 145.957,162.682 153.537,155.16 
		65.079,66.379 	"/>
</g>
<rect id="_x3C_Slice_x3E__1_" x="0.196" y="0.602" fill="none" width="212.599" height="212.599"/>
</svg>
