<?xml version="1.0" encoding="utf-8"?>
<!-- Generator: Adobe Illustrator 16.0.3, SVG Export Plug-In . SVG Version: 6.00 Build 0)  -->
<!DOCTYPE svg PUBLIC "-//W3C//DTD SVG 1.1//EN" "http://www.w3.org/Graphics/SVG/1.1/DTD/svg11.dtd">
<svg version="1.1" id="Layer_3" xmlns="http://www.w3.org/2000/svg" xmlns:xlink="http://www.w3.org/1999/xlink" x="0px" y="0px"
	 width="73.78px" height="88.873px" viewBox="0 0 73.78 88.873" enable-background="new 0 0 73.78 88.873" xml:space="preserve">
<g>
	<g>
		<g>
			<polygon fill="#E96000" points="30.093,44.782 48.503,87.886 55.362,78.789 66.31,80.28 47.9,37.176 			"/>
			<polygon fill="#FFFFFF" points="64.258,80.001 46.267,37.874 46.989,37.565 65.166,80.125 			"/>
			<polygon fill="#FFFFFF" points="49.19,86.974 31.004,44.393 31.727,44.084 49.735,86.251 			"/>
		</g>
	</g>
	<g>
		<g>
			<polygon fill="#E96000" points="44.967,44.782 26.556,87.886 19.695,78.789 8.75,80.28 27.159,37.176 			"/>
			<polygon fill="#FFFFFF" points="10.8,80.001 28.793,37.874 28.07,37.565 9.894,80.125 			"/>
			<polygon fill="#FFFFFF" points="25.869,86.974 44.056,44.393 43.333,44.084 25.324,86.251 			"/>
		</g>
	</g>
</g>
<g>
	<polygon fill="#E96000" points="37.529,66.534 33.464,69.164 30.133,65.64 25.548,67.22 23.165,62.997 18.336,63.428 
		17.035,58.761 12.247,58.027 12.095,53.187 7.615,51.331 8.628,46.59 4.725,43.712 6.849,39.354 3.754,35.629 6.849,31.905 
		4.724,27.546 8.628,24.667 7.617,19.924 12.096,18.07 12.248,13.227 17.036,12.496 18.338,7.829 23.164,8.261 25.548,4.036 
		30.134,5.617 33.464,2.094 37.529,4.724 41.596,2.094 44.926,5.617 49.512,4.037 51.896,8.261 56.723,7.83 58.024,12.497 
		62.812,13.229 62.965,18.071 67.443,19.926 66.431,24.667 70.335,27.547 68.211,31.904 71.306,35.629 68.211,39.354 70.335,43.712 
		66.431,46.59 67.443,51.332 62.964,53.188 62.811,58.028 58.023,58.762 56.722,63.428 51.895,62.997 49.512,67.221 44.926,65.641 
		41.597,69.164 	"/>
	<circle fill="#BCBBB7" cx="37.53" cy="35.629" r="28.409"/>
	
		<circle fill="none" stroke="#434343" stroke-width="1.8222" stroke-linecap="round" stroke-linejoin="round" stroke-miterlimit="1" cx="37.53" cy="35.629" r="28.409"/>
	
		<path fill="none" stroke="#7F7F7E" stroke-width="1.8222" stroke-linecap="round" stroke-linejoin="round" stroke-miterlimit="1" stroke-dasharray="0,4.5556" d="
		M37.529,60.881c-13.924,0-25.252-11.328-25.252-25.252c0-13.925,11.328-25.253,25.252-25.253c13.925,0,25.253,11.328,25.253,25.253
		C62.782,49.553,51.454,60.881,37.529,60.881L37.529,60.881z"/>
</g>
<g>
	<circle fill="#434343" cx="37.53" cy="35.629" r="22.096"/>
	<path fill="#FFFFFF" d="M37.529,55.11c-10.741,0-19.48-8.739-19.48-19.481s8.739-19.481,19.48-19.481
		c10.742,0,19.481,8.739,19.481,19.481S48.271,55.11,37.529,55.11L37.529,55.11z"/>
	<path fill="#948A7D" d="M37.529,54.063c-10.164,0-18.435-8.27-18.435-18.435s8.271-18.436,18.435-18.436
		c10.165,0,18.436,8.271,18.436,18.436S47.694,54.063,37.529,54.063L37.529,54.063z"/>
	<path fill="#FFFFFF" d="M37.529,53.107c-9.638,0-17.479-7.84-17.479-17.479s7.841-17.479,17.479-17.479
		c9.639,0,17.479,7.841,17.479,17.479S47.168,53.107,37.529,53.107L37.529,53.107z"/>
</g>
<g>
	<path fill="#434343" d="M33,43.486l-1.646,0.008l0.712-5.177l-2.229,0.011l-0.712,5.177l-1.645,0.007l0.712-5.176l-2.619,0.013
		l-0.008-1.624l2.879-0.014l0.313-2.208l-2.575,0.012l-0.007-1.623l2.813-0.014l0.67-4.829l1.623-0.008l-0.648,4.83l2.229-0.012
		l0.67-4.829l1.646-0.008l-0.67,4.83l2.446-0.012l0.006,1.623l-2.684,0.013l-0.292,2.209l2.358-0.012l0.009,1.624l-2.619,0.013
		L33,43.486z M30.383,34.495l-0.294,2.209l2.209-0.011l0.313-2.209L30.383,34.495z"/>
	<path fill="#434343" d="M45.582,40.96l1.817-0.009l0.013,2.468l-6.492,0.03l-0.012-2.468l1.817-0.009l-0.049-10.519l-2.272,0.011
		l-0.012-2.467l5.129-0.024L45.582,40.96z"/>
</g>
</svg>
