<?xml version="1.0" encoding="utf-8"?>
<!-- Generator: Adobe Illustrator 16.0.1, SVG Export Plug-In . SVG Version: 6.00 Build 0)  -->
<!DOCTYPE svg PUBLIC "-//W3C//DTD SVG 1.1//EN" "http://www.w3.org/Graphics/SVG/1.1/DTD/svg11.dtd">
<svg version="1.1" id="Layer_1" xmlns="http://www.w3.org/2000/svg" xmlns:xlink="http://www.w3.org/1999/xlink" x="0px" y="0px"
	 width="256px" height="256px" viewBox="0 0 256 256" enable-background="new 0 0 256 256" xml:space="preserve">
<path fill="#FC6A06" d="M231.199,85.991C236.643,80.251,240,72.516,240,64c0-17.645-14.355-32-32-32s-32,14.355-32,32
	c0,8.519,3.359,16.256,8.807,21.996c-3.01,1.668-5.812,3.661-8.383,5.912c-5.305-9.107-13.1-16.594-22.451-21.51
	C162.553,63.056,168,52.152,168,40c0-22.056-17.943-40-40-40S88,17.944,88,40c0,12.151,5.447,23.054,14.027,30.396
	c-9.35,4.916-17.145,12.4-22.449,21.506c-2.568-2.251-5.369-4.244-8.379-5.912C76.643,80.251,80,72.516,80,64
	c0-17.645-14.355-32-32-32S16,46.355,16,64c0,8.519,3.359,16.256,8.807,21.996C10.029,94.188,0,109.941,0,128v32
	c0,8.837,7.164,16,16,16v40c0,8.837,7.164,16,16,16h32c8.836,0,16-7.163,16-16v-26.158c2.355,1.365,5.082,2.158,8,2.158v48
	c0,8.837,7.163,16,16,16h48c8.836,0,16-7.163,16-16v-48c2.918,0,5.645-0.793,8-2.158V216c0,8.837,7.164,16,16,16h32
	c8.836,0,16-7.163,16-16v-40c8.836,0,16-7.163,16-16v-32C256,109.942,245.975,94.184,231.199,85.991z M48,48c8.836,0,16,7.164,16,16
	c0,8.837-7.164,16-16,16c-8.837,0-16-7.163-16-16C32,55.164,39.163,48,48,48z M64,132v84H52v-56c0-2.209-1.791-4-4-4s-4,1.791-4,4
	v56H32v-84c0-2.209-1.791-4-4-4s-4,1.791-4,4v28h-8v-32c0-17.672,14.326-32,32-32c10.252,0,19.369,4.826,25.227,12.324
	C72.424,112.091,72,115.997,72,120v8h-4C65.791,128,64,129.791,64,132z M208,48c8.836,0,16,7.164,16,16c0,8.837-7.164,16-16,16
	c-8.837,0-16-7.163-16-16C192,55.164,199.163,48,208,48z M128,16c13.255,0,24,10.746,24,24c0,13.255-10.745,24-24,24
	s-24-10.745-24-24C104,26.746,114.745,16,128,16z M168,176h-8v-52c0-2.209-1.791-4-4-4s-4,1.791-4,4v116h-20v-64
	c0-2.209-1.791-4-4-4s-4,1.791-4,4v64h-20V124c0-2.209-1.791-4-4-4s-4,1.791-4,4v52h-8v-56c0-22.09,17.908-40,40-40s40,17.91,40,40
	V176z M240,160h-8v-28c0-2.209-1.791-4-4-4s-4,1.791-4,4v84h-12v-56c0-2.209-1.791-4-4-4s-4,1.791-4,4v56h-12v-84
	c0-2.209-1.791-4-4-4h-4v-8c0-4.003-0.424-7.909-1.227-11.676C188.631,100.826,197.748,96,208,96c17.674,0,32,14.328,32,32V160z"/>
<g>
</g>
<g>
</g>
<g>
</g>
<g>
</g>
<g>
</g>
<g>
</g>
<g>
</g>
<g>
</g>
<g>
</g>
<g>
</g>
<g>
</g>
<g>
</g>
<g>
</g>
<g>
</g>
<g>
</g>
</svg>
