<?xml version="1.0" encoding="utf-8"?>
<!-- Generator: Adobe Illustrator 16.0.1, SVG Export Plug-In . SVG Version: 6.00 Build 0)  -->
<!DOCTYPE svg PUBLIC "-//W3C//DTD SVG 1.1//EN" "http://www.w3.org/Graphics/SVG/1.1/DTD/svg11.dtd">
<svg version="1.1" id="Layer_1" xmlns="http://www.w3.org/2000/svg" xmlns:xlink="http://www.w3.org/1999/xlink" x="0px" y="0px"
	 width="256px" height="240px" viewBox="0 0 256 240" enable-background="new 0 0 256 240" xml:space="preserve">
<path fill="#FC6A06" d="M254.742,88.337C251.453,78.574,242.301,72,232,72h-58.227l-23.59-57.156C146.477,5.861,137.717,0,128,0
	c-9.719,0-18.478,5.861-22.186,14.844L82.229,72H24.002C13.699,72,4.547,78.574,1.258,88.337
	c-3.289,9.762,0.018,20.535,8.219,26.769l49.775,37.839l-17.32,55.959c-3.03,9.79,0.49,20.425,8.765,26.473
	s19.474,6.174,27.884,0.314L128,201.252l49.42,34.438c4.127,2.876,8.926,4.31,13.721,4.31c4.977,0,9.95-1.545,14.162-4.624
	c8.275-6.048,11.795-16.683,8.766-26.473l-17.32-55.959l49.775-37.839C254.725,108.872,258.031,98.099,254.742,88.337z
	 M236.84,102.368l-58.686,44.613l20.629,66.653c1.011,3.263-0.164,6.808-2.921,8.823c-1.403,1.026-3.062,1.542-4.721,1.542
	c-1.599,0-3.198-0.479-4.573-1.437L128,181.75l-58.568,40.813c-2.803,1.952-6.537,1.911-9.295-0.105
	c-2.758-2.016-3.932-5.561-2.922-8.823l20.631-66.653l-58.687-44.613c-2.733-2.078-3.836-5.668-2.739-8.922
	C17.517,90.191,20.566,88,24.002,88h68.932l27.672-67.052C121.841,17.954,124.761,16,128,16s6.159,1.954,7.395,4.948L163.066,88H232
	c3.432,0,6.482,2.191,7.58,5.446C240.676,96.7,239.574,100.29,236.84,102.368z"/>
<g>
</g>
<g>
</g>
<g>
</g>
<g>
</g>
<g>
</g>
<g>
</g>
<g>
</g>
<g>
</g>
<g>
</g>
<g>
</g>
<g>
</g>
<g>
</g>
<g>
</g>
<g>
</g>
<g>
</g>
</svg>
