<?xml version="1.0" encoding="utf-8"?>
<!-- Generator: Adobe Illustrator 16.0.1, SVG Export Plug-In . SVG Version: 6.00 Build 0)  -->
<!DOCTYPE svg PUBLIC "-//W3C//DTD SVG 1.1//EN" "http://www.w3.org/Graphics/SVG/1.1/DTD/svg11.dtd">
<svg version="1.1" id="Layer_1" xmlns="http://www.w3.org/2000/svg" xmlns:xlink="http://www.w3.org/1999/xlink" x="0px" y="0px"
	 width="321px" height="64px" viewBox="47.5 40.5 321 64" enable-background="new 47.5 40.5 321 64" xml:space="preserve">
<g enable-background="new    ">
	<path d="M80.774,48.627l-0.329,4.421H66.52l-1.583,17.687h9.634l-0.396,4.421h-9.634l-1.914,22.108h-8.843l4.29-48.637H80.774z"/>
	<path d="M100.31,73.11l-1.32,14.782c-0.221,2.598-1.54,4.808-3.959,6.633c-2.42,1.826-5.236,2.739-8.447,2.739h-1.32
		c-3.037,0-5.609-0.792-7.721-2.375c-2.333-1.759-3.367-4.092-3.102-6.996l1.319-14.782c0.265-2.904,1.717-5.235,4.356-6.996
		c2.332-1.584,5.015-2.376,8.052-2.376h1.385c2.992,0,5.544,0.792,7.655,2.376C99.539,67.92,100.573,70.251,100.31,73.11z
		 M91.466,73.11c0.132-1.583-0.1-2.793-0.693-3.629c-0.594-0.836-1.375-1.254-2.342-1.254c-0.924,0-1.761,0.396-2.508,1.188
		c-0.792,0.924-1.254,2.156-1.386,3.695l-1.254,14.782c-0.132,1.496,0.109,2.685,0.727,3.564c0.615,0.881,1.385,1.342,2.31,1.386
		c0.923,0.045,1.77-0.362,2.541-1.22c0.77-0.858,1.221-2.101,1.353-3.73L91.466,73.11z"/>
	<path d="M127.102,73.11l-1.319,14.782c-0.221,2.598-1.541,4.808-3.96,6.633c-2.42,1.826-5.236,2.739-8.447,2.739h-1.32
		c-3.036,0-5.61-0.792-7.722-2.375c-2.333-1.759-3.366-4.092-3.102-6.996l1.321-14.782c0.264-2.904,1.716-5.235,4.355-6.996
		c2.331-1.584,5.016-2.376,8.051-2.376h1.387c2.991,0,5.542,0.792,7.654,2.376C126.332,67.92,127.366,70.251,127.102,73.11z
		 M118.259,73.11c0.131-1.583-0.1-2.793-0.693-3.629c-0.594-0.836-1.376-1.254-2.343-1.254c-0.923,0-1.76,0.396-2.508,1.188
		c-0.791,0.924-1.253,2.156-1.385,3.695l-1.254,14.782c-0.132,1.496,0.109,2.685,0.726,3.564c0.616,0.881,1.387,1.342,2.31,1.386
		c0.925,0.045,1.77-0.362,2.541-1.22c0.77-0.858,1.222-2.101,1.354-3.73L118.259,73.11z"/>
	<path d="M158.383,48.627l-3.629,41.246c-0.177,1.981,0.747,2.97,2.771,2.97l-0.396,4.421h-3.3c-3.035,0-5.303-0.901-6.797-2.706
		c-1.936,1.805-4.42,2.706-7.457,2.706c-3.212,0-5.896-0.727-8.051-2.179c-2.508-1.67-3.63-4.068-3.366-7.193l1.254-14.782
		c0.265-2.859,1.716-5.19,4.355-6.995c2.376-1.585,5.06-2.377,8.052-2.377h6.335l0.99-10.69h-2.508l0.396-4.421H158.383z
		 M147.824,68.161h-6.401c-1.849,0-2.86,1.101-3.036,3.299l-1.453,16.96c-0.264,2.949,0.968,4.421,3.697,4.421
		c1.364,0,2.574-0.482,3.629-1.451c1.056-0.967,1.65-2.134,1.782-3.499L147.824,68.161z"/>
	<path d="M186.1,70.735c1.408,1.057,2.113,2.64,2.113,4.752l-0.066,1.121l-1.188,13.793c0,0.176,0,0.353,0,0.528
		c0,1.277,0.726,1.914,2.177,1.914l-0.396,4.421h-3.762c-4.576,0-6.863-2.023-6.863-6.071c0-0.265,0.021-0.528,0.066-0.792
		l1.122-13.661c0-0.22,0-0.417,0-0.594c0-1.585-0.726-2.376-2.177-2.376h-4.752l-2.045,23.494h-8.777l3.828-44.216h-2.575
		l0.396-4.356h15.904c3.037,0,5.521,0.639,7.458,1.915c2.245,1.495,3.366,3.673,3.366,6.533
		C189.927,63.916,188.651,68.447,186.1,70.735z M181.151,56.15c0.044-0.88-0.221-1.617-0.792-2.211
		c-0.572-0.593-1.319-0.891-2.244-0.891h-3.893l-1.452,16.3h4.487c1.892,0,2.926-1.099,3.102-3.3L181.151,56.15z"/>
	<path d="M220.218,92.843l-0.396,4.421H204.05c-3.3,0-5.896-0.836-7.788-2.507c-2.068-1.805-2.948-4.356-2.639-7.656l1.649-18.94
		h-2.309l0.396-4.421h11.086l-2.046,24.484c-0.089,1.232,0.143,2.31,0.692,3.234c0.55,0.924,1.375,1.386,2.475,1.386h3.168
		l2.574-29.104h8.843l-2.507,29.104H220.218L220.218,92.843z"/>
	<path d="M253.346,73.11l-1.32,14.782c-0.264,3.081-1.826,5.479-4.686,7.193c-2.375,1.452-5.169,2.179-8.381,2.179
		c-3.036,0-5.368-0.901-6.996-2.706c-1.805,1.805-4.202,2.706-7.194,2.706h-3.233l0.396-4.421c1.891-0.088,2.925-1.077,3.102-2.97
		l3.629-41.246h12.208l-0.329,4.421h-3.366l-0.924,10.69h6.335c2.992,0,5.543,0.792,7.655,2.377
		C252.577,67.92,253.61,70.251,253.346,73.11z M244.7,71.46c0.176-2.199-0.659-3.299-2.507-3.299h-6.336l-1.782,19.731
		c-0.132,1.364,0.253,2.531,1.155,3.499c0.901,0.969,2.035,1.451,3.399,1.451c2.771,0,4.29-1.473,4.554-4.421L244.7,71.46z"/>
	<path d="M267.996,92.843l-0.396,4.421h-1.32c-3.212,0-5.698-0.736-7.457-2.211c-1.761-1.474-2.531-3.487-2.309-6.039l1.847-20.854
		h-2.507l0.396-4.421h11.286l-2.179,25.276C265.179,91.304,266.059,92.579,267.996,92.843z M268.393,53.114
		c0,1.233-0.44,2.3-1.321,3.201c-0.881,0.902-1.937,1.352-3.167,1.352c-1.233,0-2.289-0.438-3.168-1.32
		c-0.88-0.879-1.32-1.957-1.32-3.233c0-1.231,0.439-2.287,1.32-3.168c0.881-0.879,1.936-1.319,3.168-1.319
		c1.232,0,2.287,0.44,3.167,1.319C267.952,50.827,268.393,51.883,268.393,53.114z"/>
</g>
<defs>
	<filter id="Adobe_OpacityMaskFilter" filterUnits="userSpaceOnUse" x="53.783" y="48.627" width="214.609" height="48.638">
		<feColorMatrix  type="matrix" values="1 0 0 0 0  0 1 0 0 0  0 0 1 0 0  0 0 0 1 0"/>
	</filter>
</defs>
<mask maskUnits="userSpaceOnUse" x="53.783" y="48.627" width="214.609" height="48.638" id="SVGID_1_">
	<g filter="url(#Adobe_OpacityMaskFilter)">
		<ellipse fill="#606060" cx="182.445" cy="52.995" rx="127.445" ry="27.955"/>
	</g>
</mask>
<g mask="url(#SVGID_1_)">
	<g enable-background="new    ">
		<path fill="#B2B2B2" d="M80.774,48.627l-0.329,4.421H66.52l-1.583,17.687h9.634l-0.396,4.421h-9.634l-1.914,22.108h-8.843
			l4.29-48.637H80.774z"/>
		<path fill="#B2B2B2" d="M100.31,73.11l-1.32,14.782c-0.221,2.598-1.54,4.808-3.959,6.633c-2.42,1.826-5.236,2.739-8.447,2.739
			h-1.32c-3.037,0-5.609-0.792-7.721-2.375c-2.333-1.759-3.367-4.092-3.102-6.996l1.319-14.782c0.265-2.904,1.717-5.235,4.356-6.996
			c2.332-1.584,5.015-2.376,8.052-2.376h1.385c2.992,0,5.544,0.792,7.655,2.376C99.539,67.92,100.573,70.251,100.31,73.11z
			 M91.466,73.11c0.132-1.583-0.1-2.793-0.693-3.629c-0.594-0.836-1.375-1.254-2.342-1.254c-0.924,0-1.761,0.396-2.508,1.188
			c-0.792,0.924-1.254,2.156-1.386,3.695l-1.254,14.782c-0.132,1.496,0.109,2.685,0.727,3.564c0.615,0.881,1.385,1.342,2.31,1.386
			c0.923,0.045,1.77-0.362,2.541-1.22c0.77-0.858,1.221-2.101,1.353-3.73L91.466,73.11z"/>
		<path fill="#B2B2B2" d="M127.102,73.11l-1.319,14.782c-0.221,2.598-1.541,4.808-3.96,6.633c-2.42,1.826-5.236,2.739-8.447,2.739
			h-1.32c-3.036,0-5.61-0.792-7.722-2.375c-2.333-1.759-3.366-4.092-3.102-6.996l1.321-14.782c0.264-2.904,1.716-5.235,4.355-6.996
			c2.331-1.584,5.016-2.376,8.051-2.376h1.387c2.991,0,5.542,0.792,7.654,2.376C126.332,67.92,127.366,70.251,127.102,73.11z
			 M118.259,73.11c0.131-1.583-0.1-2.793-0.693-3.629c-0.594-0.836-1.376-1.254-2.343-1.254c-0.923,0-1.76,0.396-2.508,1.188
			c-0.791,0.924-1.253,2.156-1.385,3.695l-1.254,14.782c-0.132,1.496,0.109,2.685,0.726,3.564c0.616,0.881,1.387,1.342,2.31,1.386
			c0.925,0.045,1.77-0.362,2.541-1.22c0.77-0.858,1.222-2.101,1.354-3.73L118.259,73.11z"/>
		<path fill="#B2B2B2" d="M158.383,48.627l-3.629,41.246c-0.177,1.981,0.747,2.97,2.771,2.97l-0.396,4.421h-3.3
			c-3.035,0-5.303-0.901-6.797-2.706c-1.936,1.805-4.42,2.706-7.457,2.706c-3.212,0-5.896-0.727-8.051-2.179
			c-2.508-1.67-3.63-4.068-3.366-7.193l1.254-14.782c0.265-2.859,1.716-5.19,4.355-6.995c2.376-1.585,5.06-2.377,8.052-2.377h6.335
			l0.99-10.69h-2.508l0.396-4.421H158.383z M147.824,68.161h-6.401c-1.849,0-2.86,1.101-3.036,3.299l-1.453,16.96
			c-0.264,2.949,0.968,4.421,3.697,4.421c1.364,0,2.574-0.482,3.629-1.451c1.056-0.967,1.65-2.134,1.782-3.499L147.824,68.161z"/>
		<path fill="#B2B2B2" d="M186.1,70.735c1.408,1.057,2.113,2.64,2.113,4.752l-0.066,1.121l-1.188,13.793c0,0.176,0,0.353,0,0.528
			c0,1.277,0.726,1.914,2.177,1.914l-0.396,4.421h-3.762c-4.576,0-6.863-2.023-6.863-6.071c0-0.265,0.021-0.528,0.066-0.792
			l1.122-13.661c0-0.22,0-0.417,0-0.594c0-1.585-0.726-2.376-2.177-2.376h-4.752l-2.045,23.494h-8.777l3.828-44.216h-2.575
			l0.396-4.356h15.904c3.037,0,5.521,0.639,7.458,1.915c2.245,1.495,3.366,3.673,3.366,6.533
			C189.927,63.916,188.651,68.447,186.1,70.735z M181.151,56.15c0.044-0.88-0.221-1.617-0.792-2.211
			c-0.572-0.593-1.319-0.891-2.244-0.891h-3.893l-1.452,16.3h4.487c1.892,0,2.926-1.099,3.102-3.3L181.151,56.15z"/>
		<path fill="#B2B2B2" d="M220.218,92.843l-0.396,4.421H204.05c-3.3,0-5.896-0.836-7.788-2.507
			c-2.068-1.805-2.948-4.356-2.639-7.656l1.649-18.94h-2.309l0.396-4.421h11.086l-2.046,24.484c-0.089,1.232,0.143,2.31,0.692,3.234
			c0.55,0.924,1.375,1.386,2.475,1.386h3.168l2.574-29.104h8.843l-2.507,29.104H220.218L220.218,92.843z"/>
		<path fill="#B2B2B2" d="M253.346,73.11l-1.32,14.782c-0.264,3.081-1.826,5.479-4.686,7.193c-2.375,1.452-5.169,2.179-8.381,2.179
			c-3.036,0-5.368-0.901-6.996-2.706c-1.805,1.805-4.202,2.706-7.194,2.706h-3.233l0.396-4.421c1.891-0.088,2.925-1.077,3.102-2.97
			l3.629-41.246h12.208l-0.329,4.421h-3.366l-0.924,10.69h6.335c2.992,0,5.543,0.792,7.655,2.377
			C252.577,67.92,253.61,70.251,253.346,73.11z M244.7,71.46c0.176-2.199-0.659-3.299-2.507-3.299h-6.336l-1.782,19.731
			c-0.132,1.364,0.253,2.531,1.155,3.499c0.901,0.969,2.035,1.451,3.399,1.451c2.771,0,4.29-1.473,4.554-4.421L244.7,71.46z"/>
		<path fill="#B2B2B2" d="M267.996,92.843l-0.396,4.421h-1.32c-3.212,0-5.698-0.736-7.457-2.211
			c-1.761-1.474-2.531-3.487-2.309-6.039l1.847-20.854h-2.507l0.396-4.421h11.286l-2.179,25.276
			C265.179,91.304,266.059,92.579,267.996,92.843z M268.393,53.114c0,1.233-0.44,2.3-1.321,3.201
			c-0.881,0.902-1.937,1.352-3.167,1.352c-1.233,0-2.289-0.438-3.168-1.32c-0.88-0.879-1.32-1.957-1.32-3.233
			c0-1.231,0.439-2.287,1.32-3.168c0.881-0.879,1.936-1.319,3.168-1.319c1.232,0,2.287,0.44,3.167,1.319
			C267.952,50.827,268.393,51.883,268.393,53.114z"/>
	</g>
</g>
<g>
	<g>
		<path fill="#E96000" d="M316.067,93.928c0,1.895-1.251,3.43-2.798,3.43h-37.073c-1.545,0-2.798-1.536-2.798-3.43V62.016
			c0-1.895,1.253-3.43,2.798-3.43h37.073c1.545,0,2.798,1.535,2.798,3.43V93.928L316.067,93.928z"/>
		<path fill="#E96000" d="M282.468,58.586c0,0,1.757-5.015,4.233-5.015c2.477,0,16.614,0,16.614,0s1.731-0.261,3.542,5.015H282.468z
			"/>
	</g>
	<defs>
		<filter id="Adobe_OpacityMaskFilter_1_" filterUnits="userSpaceOnUse" x="273.398" y="53.569" width="42.669" height="43.789">
			<feColorMatrix  type="matrix" values="1 0 0 0 0  0 1 0 0 0  0 0 1 0 0  0 0 0 1 0"/>
		</filter>
	</defs>
	<mask maskUnits="userSpaceOnUse" x="273.398" y="53.569" width="42.669" height="43.789" id="SVGID_2_">
		<g filter="url(#Adobe_OpacityMaskFilter_1_)">
		</g>
	</mask>
	<g mask="url(#SVGID_2_)">
		<path fill="#F79B5C" d="M316.067,93.928c0,1.895-1.251,3.43-2.798,3.43h-37.073c-1.545,0-2.798-1.536-2.798-3.43V62.016
			c0-1.895,1.253-3.43,2.798-3.43h37.073c1.545,0,2.798,1.535,2.798,3.43V93.928L316.067,93.928z"/>
		<path fill="#F79B5C" d="M282.468,58.586c0,0,1.757-5.015,4.233-5.015c2.477,0,16.614,0,16.614,0s1.731-0.261,3.542,5.015H282.468z
			"/>
	</g>
	<circle fill="#ED8D4C" cx="294.732" cy="77.237" r="12.047"/>
</g>
<g>
	<polygon fill="none" stroke="#FFFFFF" stroke-width="2" stroke-miterlimit="10" points="306.06,61.819 296.748,71.737 
		296.82,74.568 279.287,93.242 281.825,95.625 299.436,76.868 302.458,76.734 311.588,67.012 310.42,65.913 303.718,73.05 
		302.703,72.097 309.405,64.959 308.257,63.882 301.414,71.169 300.382,70.201 307.225,62.914 	"/>
	<polygon fill="#FFFFFF" points="278.499,63.54 281.541,72.147 285.261,75.896 291.595,79.111 308.472,95.993 311.143,93.343 
		279.981,62.067 	"/>
</g>
<g>
	<path id="sms-5-icon" fill="#999999" d="M342.405,48.798c-11.396,0-21.573,5.381-21.573,12.741c0,2.61,1.328,5.173,3.68,7.161
		c0.1,2.33-0.092,3.238-1.838,5.674c4.678-0.599,5.074-1.259,8.09-2.566c16.605,2.86,33.217-2.562,33.217-10.269
		C363.979,54.138,353.729,48.798,342.405,48.798z"/>
	<text transform="matrix(1 0 0 1 326.0117 64.7568)" fill="#FFFFFF" font-family="'Intro'" font-size="12.1304">B</text>
	<text transform="matrix(1 0 0 1 334.9395 64.7568)" fill="#FFFFFF" font-family="'Intro'" font-size="12.1304">E</text>
	<text transform="matrix(1 0 0 1 342.8242 64.7568)" fill="#FFFFFF" font-family="'Intro'" font-size="12.1304">T</text>
	<text transform="matrix(1 0 0 1 349.6777 64.7568)" fill="#FFFFFF" font-family="'Intro'" font-size="12.1304">A</text>
</g>
</svg>
